<svg xmlns="http://www.w3.org/2000/svg" viewBox="0 0 32 32">
  <defs>
    <clipPath id="b">
      <circle cx="16" cy="16" r="14.5"/>
    </clipPath>
  </defs>

  <!-- Number ring / outer rim -->
  <circle cx="16" cy="16" r="16" fill="#1a1a1a"/>

  <!-- Board base (cream for light segments) -->
  <circle cx="16" cy="16" r="14.5" fill="#EAE6DC"/>

  <!-- Blue segments (10 of 20, alternating, clipped to board) -->
  <g fill="#1E3F73" clip-path="url(#b)">
    <path d="M16,16 L16,-14 A30,30,0,0,1,25.27,-12.53 Z"/>
    <path d="M16,16 L33.64,-8.27 A30,30,0,0,1,40.27,-1.64 Z"/>
    <path d="M16,16 L44.53,6.73 A30,30,0,0,1,46,16 Z"/>
    <path d="M16,16 L44.53,25.27 A30,30,0,0,1,40.27,33.64 Z"/>
    <path d="M16,16 L33.64,40.27 A30,30,0,0,1,25.27,44.53 Z"/>
    <path d="M16,16 L16,46 A30,30,0,0,1,6.73,44.53 Z"/>
    <path d="M16,16 L-1.64,40.27 A30,30,0,0,1,-8.27,33.64 Z"/>
    <path d="M16,16 L-12.53,25.27 A30,30,0,0,1,-14,16 Z"/>
    <path d="M16,16 L-12.53,6.73 A30,30,0,0,1,-8.27,-1.64 Z"/>
    <path d="M16,16 L-1.64,-8.27 A30,30,0,0,1,6.73,-12.53 Z"/>
  </g>

  <!-- Green doubles ring (outer scoring band) -->
  <circle cx="16" cy="16" r="13.5" fill="none" stroke="#007A33" stroke-width="2" opacity="0.9"/>

  <!-- Green triples ring (inner scoring band) -->
  <circle cx="16" cy="16" r="8.5" fill="none" stroke="#007A33" stroke-width="1.5" opacity="0.9"/>

  <!-- Wire segment dividers (20 radial lines) -->
  <g stroke="rgba(190,190,190,0.4)" stroke-width="0.4" clip-path="url(#b)">
    <line x1="16" y1="16" x2="16" y2="1.5"/>
    <line x1="16" y1="16" x2="16" y2="1.5" transform="rotate(18,16,16)"/>
    <line x1="16" y1="16" x2="16" y2="1.5" transform="rotate(36,16,16)"/>
    <line x1="16" y1="16" x2="16" y2="1.5" transform="rotate(54,16,16)"/>
    <line x1="16" y1="16" x2="16" y2="1.5" transform="rotate(72,16,16)"/>
    <line x1="16" y1="16" x2="16" y2="1.5" transform="rotate(90,16,16)"/>
    <line x1="16" y1="16" x2="16" y2="1.5" transform="rotate(108,16,16)"/>
    <line x1="16" y1="16" x2="16" y2="1.5" transform="rotate(126,16,16)"/>
    <line x1="16" y1="16" x2="16" y2="1.5" transform="rotate(144,16,16)"/>
    <line x1="16" y1="16" x2="16" y2="1.5" transform="rotate(162,16,16)"/>
    <line x1="16" y1="16" x2="16" y2="1.5" transform="rotate(180,16,16)"/>
    <line x1="16" y1="16" x2="16" y2="1.5" transform="rotate(198,16,16)"/>
    <line x1="16" y1="16" x2="16" y2="1.5" transform="rotate(216,16,16)"/>
    <line x1="16" y1="16" x2="16" y2="1.5" transform="rotate(234,16,16)"/>
    <line x1="16" y1="16" x2="16" y2="1.5" transform="rotate(252,16,16)"/>
    <line x1="16" y1="16" x2="16" y2="1.5" transform="rotate(270,16,16)"/>
    <line x1="16" y1="16" x2="16" y2="1.5" transform="rotate(288,16,16)"/>
    <line x1="16" y1="16" x2="16" y2="1.5" transform="rotate(306,16,16)"/>
    <line x1="16" y1="16" x2="16" y2="1.5" transform="rotate(324,16,16)"/>
    <line x1="16" y1="16" x2="16" y2="1.5" transform="rotate(342,16,16)"/>
  </g>

  <!-- Wire ring circles -->
  <circle cx="16" cy="16" r="12.3" fill="none" stroke="rgba(190,190,190,0.3)" stroke-width="0.3"/>
  <circle cx="16" cy="16" r="9.3" fill="none" stroke="rgba(190,190,190,0.3)" stroke-width="0.3"/>
  <circle cx="16" cy="16" r="7.5" fill="none" stroke="rgba(190,190,190,0.3)" stroke-width="0.3"/>
  <circle cx="16" cy="16" r="4.5" fill="none" stroke="rgba(190,190,190,0.3)" stroke-width="0.3"/>

  <!-- Outer bull (green) -->
  <circle cx="16" cy="16" r="3.5" fill="#007A33"/>

  <!-- Inner bull (blue) -->
  <circle cx="16" cy="16" r="1.5" fill="#0052B4"/>
</svg>
